# xmcd
#
# Track frame offsets: 
#        182
#        12772
#        24870
#        38010
#        50912
#        63447
#        76415
#        88920
#        102230
#        114580
#        129415
#        142792
#        154865
#        167237
#
# Disc length: 2381 seconds
#
# Revision: 3
# Processed by: cddbd v1.5.2PL0 Copyright (c) Steve Scherf et al.
# Submitted via: ExactAudioCopy v0.99pb4
#
DISCID=ae094b0e
DTITLE=Big Bill Broonzy - The Young Big Bill Broonzy: 1928-1935
DYEAR=1900
DGENRE=Blues
TTITLE0=Long Tall Mama
TTITLE1=Mississippi River Blues
TTITLE2=Saturday Night Rub
TTITLE3=How You Want It Done?
TTITLE4=Stove Pipe Stomp
TTITLE5=Hokum Stomp
TTITLE6=I Can't Be Satisfied
TTITLE7=Brownskin Shuffle
TTITLE8=Eagle Ridin' Papa
TTITLE9=Starvation Blues
TTITLE10=Hip Shakin' Strut
TTITLE11=Good Liquor Gonna Carry Me Down
TTITLE12=Skoodle Do Do
TTITLE13=Banker's Blues
EXTD=
EXTT0=
EXTT1=
EXTT2=
EXTT3=
EXTT4=
EXTT5=
EXTT6=
EXTT7=
EXTT8=
EXTT9=
EXTT10=
EXTT11=
EXTT12=
EXTT13=
PLAYORDER=
